<?xml version="1.0" encoding="UTF-8" standalone="no"?>
<!-- Generator: Adobe Illustrator 19.0.0, SVG Export Plug-In . SVG Version: 6.00 Build 0)  -->

<svg
   xmlns:dc="http://purl.org/dc/elements/1.1/"
   xmlns:cc="http://creativecommons.org/ns#"
   xmlns:rdf="http://www.w3.org/1999/02/22-rdf-syntax-ns#"
   xmlns:svg="http://www.w3.org/2000/svg"
   xmlns="http://www.w3.org/2000/svg"
   xmlns:sodipodi="http://sodipodi.sourceforge.net/DTD/sodipodi-0.dtd"
   xmlns:inkscape="http://www.inkscape.org/namespaces/inkscape"
   version="1.1"
   id="Layer_1"
   x="0px"
   y="0px"
   viewBox="0 0 291.32 291.32"
   style="enable-background:new 0 0 291.32 291.32;"
   xml:space="preserve"
   inkscape:version="0.91 r13725"
   sodipodi:docname="github.svg"><metadata
     id="metadata41"><rdf:RDF><cc:Work
         rdf:about=""><dc:format>image/svg+xml</dc:format><dc:type
           rdf:resource="http://purl.org/dc/dcmitype/StillImage" /></cc:Work></rdf:RDF></metadata><defs
     id="defs39" /><sodipodi:namedview
     pagecolor="#ffffff"
     bordercolor="#666666"
     borderopacity="1"
     objecttolerance="10"
     gridtolerance="10"
     guidetolerance="10"
     inkscape:pageopacity="0"
     inkscape:pageshadow="2"
     inkscape:window-width="686"
     inkscape:window-height="480"
     id="namedview37"
     showgrid="false"
     inkscape:zoom="0.81010571"
     inkscape:cx="145.66"
     inkscape:cy="145.66"
     inkscape:window-x="0"
     inkscape:window-y="0"
     inkscape:window-maximized="0"
     inkscape:current-layer="g3" /><g
     id="g3"><path
       style="fill:#000000"
       d="M145.66,0C65.219,0,0,65.219,0,145.66c0,80.45,65.219,145.66,145.66,145.66   s145.66-65.21,145.66-145.66C291.319,65.219,226.1,0,145.66,0z M186.462,256.625c-0.838-11.398-1.775-25.518-1.83-31.235   c-0.364-4.388-0.838-15.549-11.434-22.677c42.068-3.523,62.087-26.774,63.526-57.499c1.202-17.497-5.754-32.883-18.107-45.3   c0.628-13.282-0.401-29.023-1.256-35.941c-9.486-2.731-31.608,8.949-37.79,13.947c-13.037-5.062-44.945-6.837-64.336,0   c-13.747-9.668-29.396-15.64-37.926-13.974c-7.875,17.452-2.813,33.948-1.275,35.914c-10.142,9.268-24.289,20.675-20.447,44.572   c6.163,35.04,30.816,53.94,70.508,58.564c-8.466,1.73-9.896,8.048-10.606,10.788c-26.656,10.997-34.275-6.791-37.644-11.425   c-11.188-13.847-21.23-9.832-21.849-9.614c-0.601,0.218-1.056,1.092-0.992,1.511c0.564,2.986,6.655,6.018,6.955,6.263   c8.257,6.154,11.316,17.27,13.2,20.438c11.844,19.473,39.374,11.398,39.638,11.562c0.018,1.702-0.191,16.032-0.355,27.184   C64.245,245.992,27.311,200.2,27.311,145.66c0-65.365,52.984-118.348,118.348-118.348S264.008,80.295,264.008,145.66   C264.008,196.668,231.69,239.992,186.462,256.625z"
       id="path5" /></g><g
     id="g7" /><g
     id="g9" /><g
     id="g11" /><g
     id="g13" /><g
     id="g15" /><g
     id="g17" /><g
     id="g19" /><g
     id="g21" /><g
     id="g23" /><g
     id="g25" /><g
     id="g27" /><g
     id="g29" /><g
     id="g31" /><g
     id="g33" /><g
     id="g35" /></svg>