<?xml version="1.0" encoding="UTF-8" standalone="no"?>
<!-- Generator: Adobe Illustrator 19.0.0, SVG Export Plug-In . SVG Version: 6.00 Build 0)  -->

<svg
   xmlns:dc="http://purl.org/dc/elements/1.1/"
   xmlns:cc="http://creativecommons.org/ns#"
   xmlns:rdf="http://www.w3.org/1999/02/22-rdf-syntax-ns#"
   xmlns:svg="http://www.w3.org/2000/svg"
   xmlns="http://www.w3.org/2000/svg"
   xmlns:sodipodi="http://sodipodi.sourceforge.net/DTD/sodipodi-0.dtd"
   xmlns:inkscape="http://www.inkscape.org/namespaces/inkscape"
   version="1.1"
   id="Capa_1"
   x="0px"
   y="0px"
   viewBox="0 0 60 60"
   style="enable-background:new 0 0 60 60;"
   xml:space="preserve"
   inkscape:version="0.91 r13725"
   sodipodi:docname="rezume.svg"><metadata
     id="metadata39"><rdf:RDF><cc:Work
         rdf:about=""><dc:format>image/svg+xml</dc:format><dc:type
           rdf:resource="http://purl.org/dc/dcmitype/StillImage" /></cc:Work></rdf:RDF></metadata><defs
     id="defs37" /><sodipodi:namedview
     pagecolor="#ffffff"
     bordercolor="#666666"
     borderopacity="1"
     objecttolerance="10"
     gridtolerance="10"
     guidetolerance="10"
     inkscape:pageopacity="0"
     inkscape:pageshadow="2"
     inkscape:window-width="686"
     inkscape:window-height="480"
     id="namedview35"
     showgrid="false"
     inkscape:zoom="3.9333333"
     inkscape:cx="58.737939"
     inkscape:cy="26.744515"
     inkscape:window-x="0"
     inkscape:window-y="0"
     inkscape:window-maximized="0"
     inkscape:current-layer="Capa_1" /><path
     d="M 38.914,0 6.5,0 l 0,60 47,0 0,-45.414 z M 17.5,14 l 10,0 c 0.552,0 1,0.447 1,1 0,0.553 -0.448,1 -1,1 l -10,0 c -0.552,0 -1,-0.447 -1,-1 0,-0.553 0.448,-1 1,-1 z m 25,34 -25,0 c -0.552,0 -1,-0.447 -1,-1 0,-0.553 0.448,-1 1,-1 L 35.847458,46 42.5,46 c 0.552,0 1,0.447 1,1 0,0.553 -0.448,1 -1,1 z m 0,-8 -25,0 c -0.552,0 -1,-0.447 -1,-1 0,-0.553 0.448,-1 1,-1 l 25,0 c 0.552,0 1,0.447 1,1 0,0.553 -0.448,1 -1,1 z m 0,-8 -25,0 c -0.552,0 -1,-0.447 -1,-1 0,-0.553 0.448,-1 1,-1 l 25,0 c 0.552,0 1,0.447 1,1 0,0.553 -0.448,1 -1,1 z m 0,-8 -25,0 c -0.552,0 -1,-0.447 -1,-1 0,-0.553 0.448,-1 1,-1 l 25,0 c 0.552,0 1,0.447 1,1 0,0.553 -0.448,1 -1,1 z m -5,-8 0,-14 14,14 z"
     id="path3"
     style="fill:#000000;stroke:none"
     inkscape:connector-curvature="0"
     sodipodi:nodetypes="ccccccssssssssssscsssssssssssssssssssssssscccc" /><g
     id="g5" /><g
     id="g7" /><g
     id="g9" /><g
     id="g11" /><g
     id="g13" /><g
     id="g15" /><g
     id="g17" /><g
     id="g19" /><g
     id="g21" /><g
     id="g23" /><g
     id="g25" /><g
     id="g27" /><g
     id="g29" /><g
     id="g31" /><g
     id="g33" /></svg>